Community HDTV Complete Season 2 in mp4 format with eng subs..enjoy and remember to seed back..

__________________________________________________


Plot:


A smarmy lawyer, whose education is deemed void by the bar, is forced to attend a local community college with an extremely eclectic staff and student body.

Note: ALL episodes are from some other sources..Bit its quality is watchable..but not as good as bob's..


Details of one of the files are:


Screenshots:
 
http://image.bayimg.com/gaoeoaadp.jpg
 
http://image.bayimg.com/gaoepaadp.jpg


Community Season 2 Episode 1 ΓÇôAnthropology.mp4

Format : MPEG-4
Format profile : Base Media
Codec ID : isom
File size : 52.6 MiB
Duration : 20mn 58s
Overall bit rate : 351 Kbps

Video
ID : 1
Format : AVC
Format/Info : Advanced Video Codec
Format profile : High@L2.1
Format settings, CABAC : Yes
Format settings, ReFrames : 2 frames
Format settings, GOP : M=4, N=24
Codec ID : avc1
Codec ID/Info : Advanced Video Coding
Duration : 20mn 58s
Bit rate mode : Variable
Bit rate : 250 Kbps
Width : 480 pixels
Height : 272 pixels
Display aspect ratio : 16:9
Frame rate mode : Variable
Frame rate : 23.976 fps
Minimum frame rate : 12.000 fps
Maximum frame rate : 24.000 fps
Color space : YUV
Chroma subsampling : 4:2:0
Bit depth : 8 bits
Scan type : Progressive
Bits/(Pixel*Frame) : 0.080
Stream size : 37.4 MiB (71%)


Audio
ID : 2
Format : AAC
Format/Info : Advanced Audio Codec
Format profile : LC
Codec ID : 40
Duration : 20mn 58s
Bit rate mode : Variable
Bit rate : 96.0 Kbps
Channel(s) : 2 channels
Channel positions : Front: L R
Sampling rate : 44.1 KHz
Compression mode : Lossy
Stream size : 14.4 MiB (27%)



List of Episodes:

2x24	For a Few Paintballs More	
2x23	A Fist Full of Paintballs	
2x22	Applied Anthropology and Culinary Arts	
2x21	Paradigms of Human Memory	
2x20	Competitive Wine Tasting	
2x19	Critical Film Studies	
2x18	Custody Law and Eastern European Diplomacy	
2x17	Intro to Political Science	
2x16	Intermediate Documentary Filmmaking	
2x15	Early 21st Century Romanticism	
2x14	Advanced Dungeons & Dragons	
2x13	Celebrity Pharmacology	
2x12	Asian Population Studies	
2x11	Abed's Uncontrollable Christmas	
2x10	Mixology Certification	
2x09	Conspiracy Theories and Interior Design	
2x08	Cooperative Calligraphy	
2x07	Aerodynamics of Gender	
2x06	Epidemiology	
2x05	Messianic Myths and Ancient Peoples	
2x04	Basic Rocket Science	
2x03	The Psychology of Letting Go	
2x02	Accounting for Lawyers	
2x01	Anthropology 101	

THANKS TO ALL SOURCES..

PLZ HELP SEED & ENJOY SEASON 2 OF COMMUNITY...